<svg id="Group_139" data-name="Group 139" xmlns="http://www.w3.org/2000/svg" width="38.067" height="38.067" viewBox="0 0 38.067 38.067">
  <circle id="Ellipse_57" data-name="Ellipse 57" cx="19.034" cy="19.034" r="19.034" transform="translate(0 0)" fill="#fff"/>
  <path id="Union_32" data-name="Union 32" d="M11.223,15.986H4.763A4.768,4.768,0,0,1,0,11.224V4.763A4.768,4.768,0,0,1,4.763,0h6.461a4.768,4.768,0,0,1,4.763,4.763v6.461A4.768,4.768,0,0,1,11.223,15.986ZM7.993,3.858a4.135,4.135,0,1,0,4.134,4.135A4.14,4.14,0,0,0,7.993,3.858Zm4.142-.96a.991.991,0,1,0,.991.991A.992.992,0,0,0,12.135,2.9ZM7.993,10.52A2.526,2.526,0,1,1,10.52,7.993,2.529,2.529,0,0,1,7.993,10.52Z" transform="translate(10.659 10.659)" fill="#f8a22f"/>
</svg>
