<svg id="Group_140" data-name="Group 140" xmlns="http://www.w3.org/2000/svg" width="38.067" height="38.067" viewBox="0 0 38.067 38.067">
  <circle id="Ellipse_58" data-name="Ellipse 58" cx="19.034" cy="19.034" r="19.034" transform="translate(0 0)" fill="#fff"/>
  <path id="Fill-1" d="M34.283,21.3a5.59,5.59,0,0,1-2.157.765h0a3.457,3.457,0,0,0-5.869,3.16h0a9.576,9.576,0,0,1-7.128-3.588,3.46,3.46,0,0,0,1.049,4.569,2.223,2.223,0,0,1-1.51-.391A3.332,3.332,0,0,0,21.335,29.2a2.738,2.738,0,0,1-1.44.11,3.269,3.269,0,0,0,3.091,2.346A6.149,6.149,0,0,1,18,33.089a10.389,10.389,0,0,0,5.409,1.529,9.606,9.606,0,0,0,9.678-10.1c0-.006,0-.012,0-.019s0-.029,0-.044,0-.034,0-.05a5.965,5.965,0,0,0,1.676-1.77,6.059,6.059,0,0,1-1.917.544,3.674,3.674,0,0,0,1.44-1.878" transform="translate(-7.341 -8.818)" fill="#f8a22f" fill-rule="evenodd"/>
</svg>
